<svg width="33" height="31" viewBox="0 0 33 31" xmlns="http://www.w3.org/2000/svg">
 <style>
  <style>
    path {
      fill: #CB42E1;
    }
    <!-- @media (prefers-color-scheme: dark) {
      path {
        fill: red;
      }
    } -->
  </style>

  </style>
<path class="favicon" d="M31.9576 22.5494C31.7558 21.8457 31.4081 21.1924 30.9373 20.6318C30.4664 20.0713 29.8828 19.6161 29.2245 19.2959C29.2808 18.7896 29.3087 18.2805 29.3082 17.771C29.3062 15.1919 28.5514 12.6695 27.1362 10.5133C25.7211 8.35715 23.7072 6.66103 21.3419 5.63308C21.3917 4.91217 21.2928 4.18871 21.0512 3.50767C20.8095 2.82663 20.4304 2.20255 19.9374 1.67424C19.4444 1.14593 18.8479 0.724674 18.1852 0.436652C17.5224 0.14863 16.8075 0 16.0849 0C15.3623 0 14.6473 0.14863 13.9846 0.436652C13.3218 0.724674 12.7254 1.14593 12.2324 1.67424C11.7393 2.20255 11.3602 2.82663 11.1186 3.50767C10.877 4.18871 10.7781 4.91217 10.8279 5.63308C8.46136 6.66044 6.44607 8.35615 5.02925 10.5122C3.61243 12.6683 2.85567 15.1911 2.85178 17.771C2.85131 18.2805 2.87926 18.7896 2.93549 19.2959C2.28916 19.6147 1.71516 20.0628 1.24908 20.6125C0.782986 21.1621 0.43473 21.8016 0.225882 22.4914C0.0170345 23.1811 -0.047956 23.9064 0.0349372 24.6223C0.11783 25.3382 0.346842 26.0295 0.707783 26.6532C1.06872 27.277 1.55391 27.82 2.13327 28.2486C2.71263 28.6773 3.37384 28.9823 4.07592 29.145C4.778 29.3076 5.506 29.3244 6.21482 29.1942C6.92364 29.064 7.59818 28.7897 8.19665 28.3882H8.20641C10.483 30.084 13.2461 31 16.0849 31C18.9237 31 21.6867 30.084 23.9634 28.3882C24.861 28.9908 25.9223 29.3026 27.0032 29.2812C28.0842 29.2598 29.1323 28.9063 30.0054 28.2686C30.8785 27.631 31.5342 26.7401 31.8834 25.7169C32.2327 24.6937 32.2586 23.5878 31.9576 22.5494ZM25.4325 18.9527C24.5941 19.1976 23.8295 19.6465 23.2071 20.2593C22.5847 20.872 22.124 21.6295 21.8661 22.464C21.6081 23.2984 21.5611 24.1838 21.7292 25.0409C21.8972 25.898 22.2751 26.7 22.8291 27.3753C20.8517 28.7676 18.492 29.5141 16.0736 29.5123C13.6552 29.5106 11.2965 28.7607 9.32115 27.3655C9.83308 26.764 10.1963 26.0504 10.3815 25.2825C10.7163 23.9254 10.499 22.4909 9.77736 21.2937C9.05572 20.0966 7.88865 19.2346 6.53222 18.8969C5.83261 18.7257 5.10569 18.6973 4.39483 18.8132C4.3572 18.4671 4.33857 18.1191 4.33903 17.771C4.34007 15.5329 4.9812 13.3417 6.18681 11.4561C7.39241 9.57043 9.11218 8.06892 11.1432 7.1287C11.4114 7.87411 11.8511 8.54605 12.4268 9.09029C12.926 9.57022 13.5149 9.94711 14.1598 10.1994C14.8046 10.4517 15.4929 10.5745 16.1853 10.5608C16.8776 10.5471 17.5605 10.3971 18.1949 10.1194C18.8293 9.84169 19.4027 9.44176 19.8825 8.94241C20.3841 8.42447 20.7707 7.80641 21.0168 7.1287C23.0473 8.06999 24.7666 9.57194 25.972 11.4577C27.1775 13.3434 27.819 15.5343 27.821 17.7724C27.8214 18.1205 27.8028 18.4685 27.7652 18.8146C26.9869 18.6892 26.1905 18.7363 25.4325 18.9527Z" />
</svg>
